<?xml version="1.0" encoding="utf-8"?>
<!-- Generator: Adobe Illustrator 23.0.3, SVG Export Plug-In . SVG Version: 6.00 Build 0)  -->
<svg version="1.1" id="Layer_1" xmlns="http://www.w3.org/2000/svg" xmlns:xlink="http://www.w3.org/1999/xlink" x="0px" y="0px"
	 viewBox="0 0 24 24" style="enable-background:new 0 0 24 24;" xml:space="preserve">
<style type="text/css">
	.st0{fill:url(#SVGID_1_);}
	.st1{fill:none;stroke:#FFFFFF;stroke-width:0.75;stroke-miterlimit:10;}
	.st2{fill:url(#SVGID_2_);}
	.st3{fill:url(#SVGID_3_);}
	.st4{fill:url(#SVGID_4_);}
	.st5{fill:url(#SVGID_5_);}
	.st6{fill:url(#SVGID_6_);}
	.st7{fill:url(#SVGID_7_);}
	.st8{fill:url(#SVGID_8_);}
	.st9{fill:url(#SVGID_9_);}
	.st10{fill:url(#SVGID_10_);}
	.st11{fill:url(#SVGID_11_);}
	.st12{fill:url(#SVGID_12_);}
	.st13{fill:#FFFFFF;}
</style>
<linearGradient id="SVGID_1_" gradientUnits="userSpaceOnUse" x1="0.125" y1="12" x2="23.875" y2="12">
	<stop  offset="0" style="stop-color:#E4062F"/>
	<stop  offset="1" style="stop-color:#FF3000"/>
</linearGradient>
<circle class="st0" cx="12" cy="12" r="11.9"/>
<circle class="st1" cx="12" cy="12" r="10.6"/>
<circle class="st1" cx="12" cy="12" r="10.3"/>
<g>
	<path class="st13" d="M10.8,9.7c-0.3-0.2-0.6,0-0.6,0.4V14c0,0.3,0.4,0.5,0.6,0.4l3.3-2c0.3-0.2,0.3-0.6,0-0.7L10.8,9.7z
		 M11.1,13.2v-2.4l2,1.2L11.1,13.2z"/>
	<path class="st13" d="M16.4,7.1c-2.6-0.4-6.2-0.4-8.8,0c-1,0.2-1.9,1-2,2c-0.3,2-0.3,3.7,0,5.7c0.2,1.1,1,1.9,2,2
		c1.3,0.2,2.9,0.3,4.4,0.3c1.6,0,3.1-0.1,4.4-0.3c1-0.2,1.9-1,2-2c0.3-2,0.3-3.7,0-5.7C18.3,8.1,17.5,7.3,16.4,7.1L16.4,7.1z
		 M17.6,14.7c-0.1,0.7-0.7,1.2-1.3,1.3c-2.5,0.4-6.1,0.4-8.6,0C7,16,6.5,15.4,6.4,14.7C6,12.8,6,11.2,6.4,9.3C6.5,8.6,7,8,7.7,7.9
		C9,7.8,10.5,7.7,12,7.7c1.5,0,3,0.1,4.3,0.3C17,8,17.5,8.6,17.6,9.3C18,11.2,18,12.8,17.6,14.7L17.6,14.7z"/>
</g>
</svg>
